<svg width="32" height="32" viewBox="0 0 32 32" fill="none" xmlns="http://www.w3.org/2000/svg">
<path d="M12.6143 9.00008C13.2241 9.00217 13.819 9.18895 14.3203 9.53621C14.8218 9.88374 15.2067 10.3758 15.4229 10.9464L19.0244 19.8975L24.46 20.8858L28.2314 16.3595C28.363 16.2019 28.5402 16.0889 28.7383 16.0352C28.9365 15.9816 29.1467 15.9899 29.3398 16.0597C29.5331 16.1295 29.7003 16.2577 29.8184 16.4259C29.9364 16.594 29.9999 16.7946 30 17.0001V29.0001C30 29.2652 29.8945 29.5196 29.707 29.7071C29.5195 29.8946 29.2652 30.0001 29 30.0001H19C18.8101 30 18.6241 29.9457 18.4639 29.8438C18.3035 29.7418 18.1753 29.596 18.0947 29.4239C18.0142 29.2519 17.9845 29.0605 18.0088 28.8722C18.0331 28.6837 18.1098 28.5055 18.2314 28.3595L22.9902 22.6505L14.9092 21.1817L16 23.7999V30.0001H14V24.2003L12.5654 20.755L9 20.1075V30.0001H7V19.7432L2 18.8341V12.4337L7.00977 9.42782C7.4761 9.14805 8.0099 9.00019 8.55371 9.00008H12.6143ZM21.1357 28.0001H28V19.7618L21.1357 28.0001ZM9 11.0001V18.0743L16.6992 19.4747L13.5596 11.671C13.4894 11.476 13.3604 11.3066 13.1914 11.1866C13.0226 11.0669 12.8212 11.002 12.6143 11.0001H9ZM4 13.5665V17.1651L7 17.711V11.7667L4 13.5665ZM11.8174 1.06746C12.4963 0.932453 13.2003 1.00179 13.8398 1.26668C14.4792 1.53162 15.0257 1.98032 15.4102 2.55575C15.7946 3.13127 16 3.80793 16 4.50008C15.9989 5.42795 15.6297 6.31761 14.9736 6.97371C14.3175 7.62981 13.4279 7.99897 12.5 8.00008C11.8078 8.00008 11.1312 7.79474 10.5557 7.41024C9.98009 7.02565 9.53151 6.47849 9.2666 5.83895C9.00182 5.19957 8.93243 4.49621 9.06738 3.81746C9.20242 3.13856 9.53595 2.51495 10.0254 2.02547C10.5149 1.53599 11.1384 1.20251 11.8174 1.06746ZM12.5 3.00008C12.2034 3.00008 11.9136 3.08824 11.667 3.25301C11.4203 3.41782 11.2278 3.6518 11.1143 3.92586C11.0007 4.19995 10.9714 4.50208 11.0293 4.79305C11.0872 5.08381 11.2298 5.35098 11.4395 5.56063C11.6491 5.77028 11.9162 5.91286 12.207 5.97078C12.498 6.02866 12.8001 5.99936 13.0742 5.88582C13.3482 5.77228 13.5823 5.57972 13.7471 5.33309C13.9118 5.08647 14 4.79667 14 4.50008C13.9996 4.10243 13.8417 3.72074 13.5605 3.43953C13.2793 3.15833 12.8977 3.00053 12.5 3.00008Z" fill="#F2F2F2"/>
</svg>
