<svg width="32" height="32" viewBox="0 0 32 32" fill="none" xmlns="http://www.w3.org/2000/svg">
<path d="M13.2694 2.26912C15.9849 1.72905 18.7993 2.00651 21.3573 3.06599C23.9154 4.12562 26.1021 5.91995 27.6405 8.22224C29.1787 10.5244 29.9998 13.2308 29.9998 15.9996C29.9956 19.7113 28.5199 23.2705 25.8953 25.8951C23.2707 28.5197 19.7116 29.9954 15.9998 29.9996C13.231 29.9995 10.5247 29.1784 8.22249 27.6402C5.9202 26.1019 4.12586 23.9152 3.06624 21.357C2.00675 18.799 1.7293 15.9846 2.26936 13.2691C2.80955 10.5534 4.14248 8.05811 6.10042 6.10017C8.05835 4.14224 10.5536 2.80931 13.2694 2.26912ZM15.9998 3.99959C13.6266 3.99965 11.3061 4.70353 9.33284 6.02205C7.35956 7.34061 5.82211 9.21517 4.91389 11.4078C4.00564 13.6005 3.76728 16.0136 4.2303 18.3414C4.69333 20.6689 5.83649 22.8068 7.51448 24.4849C9.19269 26.1631 11.3313 27.3061 13.659 27.7691C15.9868 28.2321 18.3999 27.9948 20.5926 27.0865C22.7852 26.1782 24.6588 24.6399 25.9774 22.6666C27.2959 20.6932 27.9998 18.373 27.9998 15.9996C27.9961 12.8182 26.7309 9.76772 24.4813 7.51814C22.2317 5.26869 19.1812 4.00321 15.9998 3.99959ZM23.4139 9.99959L18.7 14.7144C18.8954 15.1147 18.9974 15.5541 18.9998 15.9996C18.9998 16.5928 18.8245 17.1733 18.4949 17.6666C18.1653 18.1599 17.6964 18.545 17.1483 18.772C16.6001 18.9991 15.9968 19.0577 15.4149 18.942C14.833 18.8262 14.2983 18.5411 13.8787 18.1217C13.4592 17.7022 13.1732 17.1674 13.0574 16.5855C12.9417 16.0037 13.0014 15.4002 13.2283 14.8521C13.4554 14.3039 13.8405 13.8351 14.3338 13.5054C14.827 13.176 15.4067 12.9996 15.9998 12.9996C16.4452 13.002 16.8847 13.105 17.285 13.3004L21.9998 8.58552L23.4139 9.99959ZM15.8055 15.0191C15.6115 15.0577 15.4326 15.1527 15.2928 15.2926C15.1529 15.4324 15.0579 15.6113 15.0194 15.8052C14.9809 15.999 15.0005 16.1999 15.076 16.3824C15.1517 16.5651 15.2798 16.7217 15.4442 16.8316C15.6085 16.9414 15.8022 16.9995 15.9998 16.9996C16.2649 16.9992 16.5194 16.8941 16.7069 16.7066C16.8943 16.5192 16.9995 16.2647 16.9998 15.9996C16.9998 15.8019 16.9417 15.6083 16.8319 15.4439C16.722 15.2796 16.5653 15.1514 16.3826 15.0758C16.2001 15.0002 15.9992 14.9807 15.8055 15.0191ZM15.6737 6.00447C17.392 5.95066 19.0959 6.34182 20.619 7.13923L19.1229 8.63533C18.1356 8.21507 17.0728 7.99852 15.9998 7.99959C13.879 8.0021 11.8452 8.8456 10.3455 10.3453C8.84585 11.845 8.00235 13.8787 7.99983 15.9996H5.99983C5.99754 14.2805 6.43946 12.5898 7.28206 11.0914C8.12471 9.59293 9.34023 8.33699 10.8104 7.44587C12.2804 6.55493 13.9556 6.05832 15.6737 6.00447ZM24.8612 11.3814C25.6094 12.8057 25.9999 14.3907 25.9998 15.9996H23.9998C24.0009 14.9268 23.7853 13.8646 23.3651 12.8775L24.8612 11.3814Z" fill="#F2F2F2"/>
</svg>
