<svg width="46" height="44" viewBox="0 0 46 44" fill="none" xmlns="http://www.w3.org/2000/svg">
<path d="M23.6546 15.5883V5.22608C23.6546 4.70505 24.0092 4.25163 24.5137 4.12691L33.2985 1.95655C33.3729 1.9379 33.445 1.99502 33.445 2.07195V8.84179L23.6546 15.5883Z" fill="#000B16"/>
<path d="M45.9443 0.230293L39.6952 4.53605L33.4462 8.8418V3.0872L45.8432 0.00416485C45.9792 -0.0296378 46.0606 0.151031 45.9443 0.231458V0.230293Z" fill="#000B16"/>
<path d="M33.446 23.6975V9.07842C33.446 8.97818 33.3332 8.91873 33.2507 8.97584L0.0544279 31.8509C-0.0595088 31.9301 0.0207119 32.1085 0.154413 32.0747L33.3507 23.8175C33.4065 23.8035 33.4448 23.7534 33.4448 23.6963L33.446 23.6975Z" fill="#000B16"/>
<path d="M33.4461 23.7954L4.49573 43.8054C4.40388 43.8683 4.28413 43.7797 4.31785 43.6736L8.63698 29.9661L33.4461 23.7954Z" fill="#000B16"/>
<path d="M19.9244 33.1424L23.3495 44L28.6068 27.1407L19.9244 33.1424Z" fill="#000B16"/>
<path d="M33.0705 43.7774L24.9263 38.9366L23.3475 44H28.1788H33.01C33.1309 44 33.1751 43.8391 33.0705 43.7774Z" fill="#000B16"/>
<path d="M28.3976 8.91407C29.1277 8.91407 29.7195 8.32071 29.7195 7.58877C29.7195 6.85683 29.1277 6.26348 28.3976 6.26348C27.6676 6.26348 27.0757 6.85683 27.0757 7.58877C27.0757 8.32071 27.6676 8.91407 28.3976 8.91407Z" fill="white"/>
</svg>
