<svg width="32" height="32" viewBox="0 0 32 32" fill="none" xmlns="http://www.w3.org/2000/svg">
<g clip-path="url(#clip0_40000043_23982)">
<mask id="mask0_40000043_23982" style="mask-type:luminance" maskUnits="userSpaceOnUse" x="0" y="0" width="32" height="32">
<path d="M32 0H0V32H32V0Z" fill="white"/>
</mask>
<g mask="url(#mask0_40000043_23982)">
<path d="M28.8281 3.17284C28.0664 2.44514 27.0535 2.03906 26 2.03906C24.9466 2.03906 23.9336 2.44514 23.1719 3.17284L4.05003 22.2929C3.39807 22.9414 2.88119 23.7127 2.52931 24.5622C2.17743 25.4117 1.99753 26.3226 2.00003 27.2421V30.0009H4.75593C5.67559 30.0036 6.58665 29.8238 7.43633 29.4719C8.28602 29.12 9.05744 28.6031 9.70593 27.9509L28.8281 8.82954C29.1997 8.45818 29.4944 8.01725 29.6955 7.53195C29.8965 7.04666 30 6.5265 30 6.00119C30 5.47588 29.8965 4.95573 29.6955 4.47043C29.4944 3.98513 29.1997 3.54421 28.8281 3.17284ZM10.91 18.2609L13.7386 21.0895L11.6172 23.2109L8.78863 20.3827L10.91 18.2609ZM8.29153 26.5365C7.82833 27.0023 7.27733 27.3716 6.67043 27.623C6.06354 27.8743 5.41281 28.0028 4.75593 28.0009H4.00003V27.2421C3.99826 26.5853 4.12678 25.9347 4.37814 25.3279C4.62951 24.7211 4.99872 24.1702 5.46443 23.707L7.37443 21.797L10.203 24.6251L8.29153 26.5365ZM27.4141 7.41504L15.1528 19.6757L12.3242 16.8471L24.5859 4.58714C24.9668 4.22332 25.4733 4.0203 26 4.0203C26.5268 4.0203 27.0332 4.22332 27.4141 4.58714C27.5999 4.77282 27.7472 4.99327 27.8477 5.23591C27.9483 5.47854 28 5.73861 28 6.00124C28 6.26388 27.9483 6.52394 27.8477 6.76657C27.7472 7.00921 27.5999 7.22936 27.4141 7.41504Z" fill="#22272C"/>
<path d="M14 2.00022C13.3816 2.00209 12.779 2.19534 12.2748 2.55344C11.7707 2.91155 11.3897 3.41694 11.1843 4.00022H7.81571C7.64793 3.52288 7.36187 3.09587 6.98425 2.75911C6.60663 2.42235 6.14979 2.18683 5.65644 2.07458C5.16308 1.96232 4.64931 1.97699 4.16317 2.11722C3.67702 2.25744 3.23436 2.51864 2.87658 2.8764C2.51879 3.23416 2.25756 3.67679 2.11729 4.16293C1.97703 4.64907 1.96232 5.16283 2.07454 5.6562C2.18675 6.14956 2.42223 6.60642 2.75896 6.98406C3.09569 7.36171 3.52268 7.64781 4.00001 7.81562V11.1843C3.33279 11.4202 2.77045 11.8844 2.41237 12.4948C2.0543 13.1052 1.92354 13.8226 2.04321 14.5201C2.16288 15.2175 2.52528 15.8503 3.06635 16.3064C3.60741 16.7626 4.29232 17.0127 5.00001 17.0127C5.70769 17.0127 6.3926 16.7626 6.93367 16.3064C7.47474 15.8503 7.83713 15.2175 7.9568 14.5201C8.07647 13.8226 7.94572 13.1052 7.58764 12.4948C7.22956 11.8844 6.66722 11.4202 6.00001 11.1843V7.81612C6.41833 7.66694 6.79825 7.42663 7.11228 7.11257C7.42631 6.79851 7.66658 6.41856 7.81571 6.00022H11.1843C11.3686 6.51729 11.6914 6.97377 12.1176 7.31978C12.5437 7.66578 13.0568 7.888 13.6007 7.96216C14.1446 8.03632 14.6984 7.95955 15.2016 7.74026C15.7048 7.52096 16.1381 7.16758 16.4541 6.71871C16.77 6.26984 16.9565 5.74275 16.9932 5.19505C17.0299 4.64735 16.9154 4.10011 16.6621 3.61311C16.4088 3.12611 16.0265 2.71809 15.557 2.43364C15.0876 2.1492 14.5489 1.99926 14 2.00022ZM5.00001 15.0002C4.80222 15.0002 4.60889 14.9416 4.44444 14.8317C4.27999 14.7218 4.15181 14.5656 4.07613 14.3829C4.00044 14.2002 3.98064 13.9991 4.01922 13.8051C4.05781 13.6111 4.15305 13.433 4.2929 13.2931C4.43275 13.1533 4.61093 13.058 4.80492 13.0194C4.9989 12.9808 5.19996 13.0007 5.38269 13.0763C5.56542 13.152 5.72159 13.2802 5.83148 13.4446C5.94136 13.6091 6.00001 13.8024 6.00001 14.0002C5.99979 14.2654 5.89437 14.5196 5.70688 14.7071C5.51939 14.8946 5.26516 15 5.00001 15.0002ZM5.00001 6.00022C4.80222 6.00022 4.60889 5.94157 4.44444 5.83169C4.27999 5.72181 4.15181 5.56563 4.07613 5.3829C4.00044 5.20017 3.98064 4.99911 4.01922 4.80513C4.05781 4.61115 4.15305 4.43296 4.2929 4.29311C4.43275 4.15326 4.61093 4.05802 4.80492 4.01943C4.9989 3.98085 5.19996 4.00065 5.38269 4.07634C5.56542 4.15203 5.72159 4.2802 5.83148 4.44465C5.94136 4.6091 6.00001 4.80244 6.00001 5.00022C5.99979 5.26537 5.89437 5.5196 5.70688 5.70709C5.51939 5.89458 5.26516 6.00001 5.00001 6.00022ZM14 6.00022C13.8022 6.00022 13.6089 5.94157 13.4444 5.83169C13.28 5.72181 13.1518 5.56563 13.0761 5.3829C13.0004 5.20017 12.9806 4.99911 13.0192 4.80513C13.0578 4.61115 13.153 4.43296 13.2929 4.29311C13.4328 4.15326 13.6109 4.05802 13.8049 4.01943C13.9989 3.98085 14.2 4.00065 14.3827 4.07634C14.5654 4.15203 14.7216 4.2802 14.8315 4.44465C14.9414 4.6091 15 4.80244 15 5.00022C14.9998 5.26537 14.8944 5.5196 14.7069 5.70709C14.5194 5.89458 14.2652 6.00001 14 6.00022Z" fill="#22272C"/>
</g>
</g>
<defs>
<clipPath id="clip0_40000043_23982">
<rect width="32" height="32" fill="white"/>
</clipPath>
</defs>
</svg>
