<svg width="32" height="32" viewBox="0 0 32 32" fill="none" xmlns="http://www.w3.org/2000/svg">
<g clip-path="url(#clip0_40000043_23975)">
<mask id="mask0_40000043_23975" style="mask-type:luminance" maskUnits="userSpaceOnUse" x="0" y="0" width="32" height="32">
<path d="M32 0H0V32H32V0Z" fill="white"/>
</mask>
<g mask="url(#mask0_40000043_23975)">
<path d="M28.8281 3.17284C28.0664 2.44514 27.0535 2.03906 26 2.03906C24.9466 2.03906 23.9336 2.44514 23.1719 3.17284L4.05003 22.2929C3.39807 22.9414 2.88119 23.7127 2.52931 24.5622C2.17743 25.4117 1.99753 26.3226 2.00003 27.2421V30.0009H4.75593C5.67559 30.0036 6.58665 29.8238 7.43633 29.4719C8.28602 29.12 9.05744 28.6031 9.70593 27.9509L28.8281 8.82954C29.1997 8.45818 29.4944 8.01725 29.6955 7.53195C29.8965 7.04666 30 6.5265 30 6.00119C30 5.47588 29.8965 4.95573 29.6955 4.47043C29.4944 3.98513 29.1997 3.54421 28.8281 3.17284ZM10.91 18.2609L13.7386 21.0895L11.6172 23.2109L8.78863 20.3827L10.91 18.2609ZM8.29153 26.5365C7.82833 27.0023 7.27733 27.3716 6.67043 27.623C6.06354 27.8743 5.41281 28.0028 4.75593 28.0009H4.00003V27.2421C3.99826 26.5853 4.12678 25.9347 4.37814 25.3279C4.62951 24.7211 4.99872 24.1702 5.46443 23.707L7.37443 21.797L10.203 24.6251L8.29153 26.5365ZM27.4141 7.41504L15.1528 19.6757L12.3242 16.8471L24.5859 4.58714C24.9668 4.22332 25.4733 4.0203 26 4.0203C26.5268 4.0203 27.0332 4.22332 27.4141 4.58714C27.5999 4.77282 27.7472 4.99327 27.8477 5.23591C27.9483 5.47854 28 5.73861 28 6.00124C28 6.26388 27.9483 6.52394 27.8477 6.76657C27.7472 7.00921 27.5999 7.22936 27.4141 7.41504Z" fill="#22272C"/>
<path d="M6.5 15C5.8078 15.0001 5.1311 14.795 4.55549 14.4105C3.97989 14.026 3.53124 13.4795 3.26629 12.84C3.00134 12.2005 2.932 11.4968 3.06703 10.8179C3.20207 10.139 3.53541 9.5154 4.0249 9.02597L7.5254 5.52597C7.80614 5.24443 7.96379 4.86306 7.96379 4.46547C7.96379 4.06788 7.80614 3.68651 7.5254 3.40497C7.23953 3.13232 6.85965 2.98021 6.4646 2.98021C6.06955 2.98021 5.68967 3.13232 5.4038 3.40497L3.415 5.39357L2 3.97997L3.99 1.99147C4.65685 1.35507 5.54321 1 6.465 1C7.38679 1 8.27315 1.35507 8.94 1.99147C9.59519 2.64832 9.96314 3.53821 9.96314 4.46597C9.96314 5.39373 9.59519 6.28362 8.94 6.94047L5.439 10.44C5.15826 10.7215 5.00061 11.1029 5.00061 11.5005C5.00061 11.8981 5.15826 12.2794 5.439 12.561C5.72486 12.8336 6.10472 12.9857 6.49975 12.9857C6.89478 12.9857 7.27464 12.8336 7.5605 12.561L11.5854 8.53667L13 9.95067L8.9746 13.975C8.65043 14.301 8.26479 14.5595 7.84001 14.7354C7.41524 14.9114 6.95977 15.0013 6.5 15Z" fill="#22272C"/>
</g>
</g>
<defs>
<clipPath id="clip0_40000043_23975">
<rect width="32" height="32" fill="white"/>
</clipPath>
</defs>
</svg>
