<svg width="32" height="32" viewBox="0 0 32 32" fill="none" xmlns="http://www.w3.org/2000/svg">
<g clip-path="url(#clip0_40000043_23968)">
<mask id="mask0_40000043_23968" style="mask-type:luminance" maskUnits="userSpaceOnUse" x="0" y="0" width="32" height="32">
<path d="M32 0H0V32H32V0Z" fill="white"/>
</mask>
<g mask="url(#mask0_40000043_23968)">
<path d="M25.9999 21V20C25.9999 19.7348 26.1052 19.4804 26.2927 19.2929C26.4803 19.1054 26.7346 19 26.9999 19C27.2651 19 27.5194 19.1054 27.707 19.2929C27.8945 19.4804 27.9999 19.7348 27.9999 20V30H29.9999V20C29.999 19.2046 29.6826 18.4421 29.1202 17.8796C28.5578 17.3172 27.7952 17.0009 26.9999 17C26.483 17.0033 25.9759 17.1416 25.5291 17.4014C25.1242 16.7462 24.4796 16.2749 23.7324 16.0882C22.9852 15.9014 22.1946 16.0138 21.5291 16.4014C21.2601 15.9732 20.8872 15.6201 20.4449 15.3751C20.0026 15.13 19.5055 15.001 18.9999 15C18.6584 15.0034 18.32 15.0658 17.9999 15.1846V10C17.9999 9.20435 17.6838 8.44129 17.1212 7.87868C16.5586 7.31607 15.7955 7 14.9999 7C14.2042 7 13.4411 7.31607 12.8785 7.87868C12.3159 8.44129 11.9999 9.20435 11.9999 10V21.1045L9.76493 19.5752L9.76413 19.5762C9.15337 19.1314 8.39719 18.9335 7.64681 19.0221C6.89643 19.1107 6.20715 19.4793 5.7168 20.0541C5.22646 20.629 4.97118 21.3678 5.00201 22.1228C5.03285 22.8777 5.34753 23.5932 5.88313 24.1262L12.3222 30L13.6701 28.522L7.29133 22.7036C7.19874 22.6113 7.12531 22.5017 7.07528 22.3809C7.02525 22.2602 6.99961 22.1307 6.99983 22C6.99987 21.8143 7.05159 21.6323 7.1492 21.4743C7.24682 21.3163 7.38647 21.1886 7.55254 21.1055C7.7186 21.0224 7.90452 20.9871 8.08949 21.0037C8.27445 21.0202 8.45116 21.0879 8.59983 21.1992L13.9999 24.8955V10C13.9999 9.73478 14.1052 9.48043 14.2927 9.29289C14.4803 9.10536 14.7346 9 14.9999 9C15.2651 9 15.5194 9.10536 15.707 9.29289C15.8945 9.48043 15.9999 9.73478 15.9999 10V21H17.9999V18C17.9999 17.7348 18.1052 17.4804 18.2927 17.2929C18.4803 17.1054 18.7346 17 18.9999 17C19.2651 17 19.5194 17.1054 19.707 17.2929C19.8945 17.4804 19.9999 17.7348 19.9999 18V21H21.9999V19C21.9999 18.7348 22.1052 18.4804 22.2927 18.2929C22.4803 18.1054 22.7346 18 22.9999 18C23.2651 18 23.5194 18.1054 23.707 18.2929C23.8945 18.4804 23.9999 18.7348 23.9999 19V21H25.9999Z" fill="#22272C"/>
<path d="M28 12H22V10H28V4H4V10H8V12H4C3.46974 11.9994 2.96135 11.7886 2.5864 11.4136C2.21145 11.0386 2.00056 10.5303 2 10V4C2.00056 3.46974 2.21145 2.96135 2.5864 2.5864C2.96135 2.21145 3.46974 2.00056 4 2H28C28.5303 2.00056 29.0386 2.21145 29.4136 2.5864C29.7886 2.96135 29.9994 3.46974 30 4V10C29.9994 10.5303 29.7886 11.0386 29.4136 11.4136C29.0386 11.7886 28.5303 11.9994 28 12Z" fill="#22272C"/>
</g>
</g>
<defs>
<clipPath id="clip0_40000043_23968">
<rect width="32" height="32" fill="white"/>
</clipPath>
</defs>
</svg>
