<svg width="32" height="32" viewBox="0 0 32 32" fill="none" xmlns="http://www.w3.org/2000/svg">
<g clip-path="url(#clip0_40000043_23995)">
<mask id="mask0_40000043_23995" style="mask-type:luminance" maskUnits="userSpaceOnUse" x="0" y="0" width="32" height="32">
<path d="M32 0H0V32H32V0Z" fill="white"/>
</mask>
<g mask="url(#mask0_40000043_23995)">
<path d="M29.4142 24.0003L12.0001 6.58621C11.6191 6.22248 11.1127 6.01953 10.586 6.01953C10.0593 6.01953 9.5529 6.22248 9.17197 6.58621L6.58597 9.17221C6.21151 9.54754 6.00122 10.0561 6.00122 10.5863C6.00122 11.1164 6.21151 11.625 6.58597 12.0003L23.9991 29.4144C24.3744 29.7888 24.8829 29.999 25.4131 29.999C25.9433 29.999 26.4518 29.7888 26.8272 29.4144L29.4142 26.8279C29.5999 26.6422 29.7473 26.4218 29.8478 26.1792C29.9483 25.9365 30.0001 25.6765 30.0001 25.4139C30.0001 25.1512 29.9483 24.8912 29.8478 24.6485C29.7473 24.4059 29.5999 24.186 29.4142 24.0003ZM8.00007 10.5862L10.586 8.00031L15.586 13.0003L12.9994 15.5872L7.99937 10.5872L8.00007 10.5862ZM25.4132 28.0003L14.4132 17.0013L17.0001 14.4144L28.0001 25.4144L25.4132 28.0003Z" fill="#22272C"/>
<path d="M3.99998 14L2 16L3.99998 18L5.99996 16L3.99998 14Z" fill="#22272C"/>
<path d="M16 2L14 3.99998L16 5.99996L18 3.99998L16 2Z" fill="#22272C"/>
<path d="M3.99998 2L2 3.99998L3.99998 5.99996L5.99996 3.99998L3.99998 2Z" fill="#22272C"/>
</g>
</g>
<defs>
<clipPath id="clip0_40000043_23995">
<rect width="32" height="32" fill="white"/>
</clipPath>
</defs>
</svg>
